<svg viewBox="0 0 262 80" fill="none" xmlns="http://www.w3.org/2000/svg">
<path d="M261.623 42.3201C261.624 47.9541 261.833 53.5981 261.566 59.22C261.295 64.9233 260.352 70.5027 255.78 74.7052C252.732 77.5077 248.996 78.5949 245.084 79.341C238.037 80.6847 231.291 80.1696 225.217 75.9496C223.146 74.5107 221.606 72.6287 222.273 69.8721C223.041 66.6981 225.745 65.4548 229.396 66.5578C232.606 67.5267 235.681 68.953 239.199 68.6064C241.335 68.3955 243.369 67.9092 245.327 67.1125C246.589 66.5987 247.593 65.6937 248.267 64.4689C248.732 63.6247 249.309 62.6202 248.779 61.8134C248.216 60.9558 247.394 61.9656 246.701 62.1191C238.036 64.0371 228.797 61.0249 224.824 54.1099C223.2 51.2843 222.466 48.2119 222.339 45.0069C222.043 37.5568 221.642 30.0913 222.574 22.6646C223.004 19.2341 225.539 17.366 228.767 17.6347C232.022 17.9057 233.936 20.1474 234.235 23.6019C234.808 30.1919 234.229 36.7966 234.602 43.3792C234.933 49.214 240.482 52.1644 245.667 49.4226C248.363 47.9968 249.373 45.615 249.395 42.7512C249.443 36.6318 249.392 30.5115 249.429 24.3919C249.444 21.9674 250.234 19.9033 252.359 18.4426C255.725 16.1284 261.517 17.8816 261.605 24.5437C261.683 30.4682 261.622 36.3945 261.623 42.3201Z" fill="#E7513B"/>
<path d="M193.906 40.4741C193.908 45.6201 193.876 50.766 193.921 55.9114C193.944 58.5152 193.156 60.6389 190.769 61.9333C188.374 63.2317 186.03 62.8826 184.07 61.1757C183.158 60.3818 182.584 60.7236 181.831 61.0365C174.793 63.9623 168.026 63.0892 161.798 59.0419C157.003 55.9263 155.019 50.9333 154.842 45.4063C154.618 38.4224 154.752 31.4265 154.783 24.4361C154.801 20.3355 157.165 17.3851 160.588 17.5972C164.645 17.8481 166.237 19.2067 166.904 24.0345C167.207 26.2268 166.972 28.4938 166.975 30.7266C166.978 34.7076 166.953 38.6884 166.983 42.6689C167.017 47.2676 170.085 50.4414 174.482 50.4852C178.508 50.5247 181.698 47.191 181.721 42.8371C181.752 37.0117 181.674 31.1855 181.755 25.361C181.792 22.7249 182.368 20.1572 184.693 18.5022C186.551 17.1802 188.723 17.0609 190.687 18.1136C192.884 19.2904 193.904 21.3539 193.904 23.8713C193.904 29.4056 193.904 34.9398 193.906 40.4741Z" fill="#E7513B"/>
<path d="M202.115 31.0597C202.118 23.1077 202.05 15.1551 202.143 7.2043C202.201 2.2466 205.019 -0.357481 209.301 0.293681C212.341 0.755967 214.108 3.07224 214.253 7.10993C214.371 10.4029 214.289 13.7032 214.289 17.0004C214.29 29.2189 214.275 41.4376 214.307 53.6565C214.311 55.2245 214.17 56.7544 213.709 58.2367C212.945 60.6928 210.869 62.1034 208.241 62.1443C205.456 62.1877 203.668 60.8193 202.709 58.3144C202.188 56.9535 202.088 55.5113 202.095 54.0424C202.129 46.3815 202.111 38.7208 202.115 31.0597Z" fill="#E7513B"/>
<path d="M44.7597 33.345C41.182 21.2812 27.9264 14.4437 15.7211 18.4759C13.2514 19.2917 10.9341 20.9423 8.67303 18.1687C8.47702 17.9286 7.96897 17.9155 7.59635 17.8488C3.19516 17.0597 0.0592315 19.9131 0.0304367 24.8938C-0.0230191 34.1206 0.0129032 43.3479 0.0126181 52.575C0.0126181 59.2767 -0.025156 65.9787 0.0300104 72.6802C0.067073 77.1791 2.01757 79.5328 5.59126 79.6213C9.81897 79.7259 12.0842 77.6811 12.1934 73.3993C12.3027 69.1328 12.2175 64.8614 12.2175 60.3383C21.7181 62.9863 24.1297 63.2015 28.8686 61.8862C41.2751 58.4425 48.4052 45.6371 44.7597 33.345ZM22.6247 50.5699C17.7711 50.6333 12.2556 46.6968 12.271 39.7993C12.2849 33.7008 16.9903 29.3191 23.226 29.3823C29.3597 29.4443 33.5071 33.7812 33.4545 40.0789C33.4021 46.3691 29.0296 50.4866 22.6247 50.5699Z" fill="#E7513B"/>
<path d="M147.18 29.5914C147.179 21.7272 147.233 13.8621 147.157 5.99835C147.113 1.53187 143.475 -0.990811 139.273 0.367821C136.562 1.24435 135.094 3.74665 135.035 7.82725C134.978 11.6996 135.022 15.5735 135.022 19.7294C134.266 19.5024 133.989 19.4498 133.737 19.3395C124.544 15.3042 116.047 16.8665 108.888 23.4886C101.937 29.9186 99.9164 38.1784 102.899 47.2671C107.062 59.9556 121.712 66.068 134.022 60.4779C134.877 60.0897 135.783 59.112 136.869 60.2833C138.9 62.4739 141.406 62.8077 143.974 61.5154C146.611 60.1874 147.214 57.7109 147.198 54.9325C147.148 46.4855 147.18 38.0386 147.18 29.5914ZM134.97 39.8252C134.991 46.1319 130.648 50.5387 124.41 50.5384C118.383 50.5378 114.108 46.0426 113.784 40.0099C113.496 34.6454 118.772 29.1374 124.494 29.2619C130.447 29.3914 135.284 34.2871 134.97 39.8252Z" fill="#E7513B"/>
<path d="M89.4457 44.0508C93.763 44.0355 96.7434 40.6352 96.0251 36.4611C93.2323 20.2326 75.9489 11.9145 61.556 20.8161C53.396 25.8627 50.0562 33.7338 51.2765 43.1298C52.44 52.0867 57.7715 58.2308 66.1866 61.3229C74.8093 64.4917 83.9524 62.1565 89.5862 56.1029C91.4607 54.0885 91.8693 51.4744 90.4789 49.5141C88.9087 47.3008 86.7519 47.21 84.2905 47.9859C82.5265 48.5418 80.9885 49.5088 79.3073 50.1971C73.3464 52.6356 66.6429 50.6122 64.4403 44.0596C72.9509 44.0598 81.1987 44.0806 89.4457 44.0508ZM74.6625 29.4947C78.1215 29.8357 80.9526 31.3241 82.946 34.8336H64.4652C67.0252 30.9648 70.2779 29.0624 74.6625 29.4947Z" fill="#E7513B"/>
</svg>
